<?xml version="1.0" encoding="UTF-8" standalone="no"?>
<!DOCTYPE svg PUBLIC "-//W3C//DTD SVG 20010904//EN"
              "http://www.w3.org/TR/2001/REC-SVG-20010904/DTD/svg10.dtd">

<svg xmlns="http://www.w3.org/2000/svg"
     width="144.51mm" height="144.51mm"
     viewBox="0 0 512 512">
  <path id="Selection"
        fill="none" stroke="black" stroke-width="10"
        d="M 281.00,93.00
           C 281.00,93.00 169.00,93.00 169.00,93.00
             136.13,93.00 109.56,90.96 82.00,112.67
             63.23,127.46 51.04,153.13 51.00,177.00
             51.00,177.00 51.00,206.00 51.00,206.00
             51.00,206.00 51.00,366.00 51.00,366.00
             51.00,366.00 38.00,367.00 38.00,367.00
             38.00,367.00 13.00,367.00 13.00,367.00
             7.35,367.01 1.33,366.88 0.24,374.00
             -0.94,381.73 4.55,383.91 11.00,384.00
             11.00,384.00 59.00,384.00 59.00,384.00
             59.00,384.00 256.00,384.00 256.00,384.00
             256.00,384.00 256.00,499.00 256.00,499.00
             256.01,503.03 255.61,507.53 259.23,510.26
             262.49,512.73 270.84,512.00 275.00,512.00
             275.00,512.00 312.00,512.00 312.00,512.00
             314.49,512.00 317.72,512.19 319.94,510.98
             327.05,507.11 325.00,489.33 325.00,482.00
             325.00,482.00 325.00,384.00 325.00,384.00
             325.00,384.00 485.00,384.00 485.00,384.00
             488.76,383.99 491.34,384.12 495.00,382.90
             511.24,377.44 512.00,365.37 512.00,351.00
             512.00,351.00 512.00,334.00 512.00,334.00
             512.00,334.00 512.00,167.00 512.00,167.00
             511.95,133.82 487.30,105.20 456.00,96.30
             440.99,92.03 414.25,93.00 398.00,93.00
             398.00,93.00 299.00,93.00 299.00,93.00
             299.00,93.00 299.00,69.00 299.00,69.00
             299.00,69.00 370.00,69.00 370.00,69.00
             380.57,68.87 383.98,66.77 384.00,56.00
             384.00,56.00 384.00,13.00 384.00,13.00
             384.00,10.66 384.13,7.18 383.26,5.04
             380.37,-2.07 367.39,0.00 361.00,0.00
             361.00,0.00 294.00,0.00 294.00,0.00
             283.09,0.02 281.05,3.40 281.00,14.00
             281.00,14.00 281.00,93.00 281.00,93.00 Z
           M 366.00,51.00
           C 366.00,51.00 299.00,51.00 299.00,51.00
             299.00,51.00 299.00,17.00 299.00,17.00
             299.00,17.00 312.00,18.00 312.00,18.00
             312.00,18.00 334.00,17.00 334.00,17.00
             334.00,17.00 358.00,17.00 358.00,17.00
             358.00,17.00 365.98,18.60 365.98,18.60
             365.98,18.60 367.00,26.00 367.00,26.00
             367.00,26.00 366.00,51.00 366.00,51.00 Z
           M 204.00,367.00
           C 204.00,367.00 165.00,367.00 165.00,367.00
             165.00,367.00 150.00,366.00 150.00,366.00
             150.00,366.00 128.00,367.00 128.00,367.00
             128.00,367.00 69.00,367.00 69.00,367.00
             69.00,367.00 69.00,178.00 69.00,178.00
             69.01,168.71 70.81,159.44 74.78,151.00
             94.62,108.82 148.52,98.29 182.91,129.44
             189.22,135.15 194.61,143.32 198.22,151.00
             202.05,159.14 203.99,168.03 204.00,177.00
             204.00,177.00 204.00,367.00 204.00,367.00 Z
           M 281.00,111.00
           C 281.00,111.00 281.00,132.00 281.00,132.00
             280.85,140.91 277.31,137.73 270.33,146.01
             263.95,153.57 262.69,161.84 266.09,171.00
             267.64,175.17 269.77,177.88 273.02,180.90
             291.08,197.69 314.67,181.60 315.90,164.00
             316.39,157.01 313.69,150.09 308.90,145.04
             302.02,137.79 299.15,140.41 299.00,132.00
             299.00,132.00 299.00,111.00 299.00,111.00
             299.00,111.00 430.00,111.00 430.00,111.00
             448.14,111.03 464.75,115.82 477.71,129.17
             492.03,143.91 495.09,161.25 495.00,181.00
             495.00,181.00 494.00,195.00 494.00,195.00
             494.00,195.00 495.00,215.00 495.00,215.00
             495.00,215.00 495.00,270.00 495.00,270.00
             495.00,270.00 494.00,285.00 494.00,285.00
             494.00,285.00 495.00,305.00 495.00,305.00
             495.00,305.00 495.00,350.00 495.00,350.00
             494.99,354.30 495.10,361.21 491.57,364.28
             488.59,366.87 482.77,366.98 479.00,367.00
             479.00,367.00 435.00,367.00 435.00,367.00
             435.00,367.00 420.00,366.00 420.00,366.00
             420.00,366.00 400.00,367.00 400.00,367.00
             400.00,367.00 345.00,367.00 345.00,367.00
             345.00,367.00 330.00,366.00 330.00,366.00
             330.00,366.00 310.00,367.00 310.00,367.00
             310.00,367.00 255.00,367.00 255.00,367.00
             255.00,367.00 239.00,366.00 239.00,366.00
             239.00,366.00 222.00,367.00 222.00,367.00
             222.00,367.00 222.00,227.00 222.00,227.00
             222.00,227.00 222.00,177.00 222.00,177.00
             221.99,167.87 220.00,158.59 216.91,150.00
             214.01,141.94 206.52,129.37 200.83,123.00
             200.83,123.00 189.00,111.00 189.00,111.00
             189.00,111.00 281.00,111.00 281.00,111.00 Z
           M 289.02,154.49
           C 301.23,154.75 299.69,168.68 291.00,169.73
             282.06,170.82 277.95,157.77 289.02,154.49 Z
           M 307.00,384.00
           C 307.00,384.00 307.00,495.00 307.00,495.00
             307.00,495.00 286.00,494.00 286.00,494.00
             274.82,494.05 273.02,497.53 273.00,486.00
             273.00,486.00 273.00,438.00 273.00,438.00
             273.00,438.00 274.00,423.00 274.00,423.00
             274.00,423.00 273.00,401.00 273.00,401.00
             273.00,401.00 273.00,384.00 273.00,384.00
             273.00,384.00 307.00,384.00 307.00,384.00 Z" />
</svg>
